<svg width="379" height="64" viewBox="0 0 379 64" fill="none" xmlns="http://www.w3.org/2000/svg">
<path d="M12.798 50C12.402 50 12.06 49.856 11.772 49.568C11.484 49.28 11.34 48.938 11.34 48.542V23.81H2.37597C1.97997 23.81 1.63797 23.666 1.34997 23.378C1.06197 23.09 0.917969 22.748 0.917969 22.352V13.658C0.917969 13.262 1.06197 12.92 1.34997 12.632C1.63797 12.344 1.97997 12.2 2.37597 12.2H34.02C34.416 12.2 34.758 12.344 35.046 12.632C35.334 12.92 35.478 13.262 35.478 13.658V22.352C35.478 22.748 35.334 23.09 35.046 23.378C34.758 23.666 34.416 23.81 34.02 23.81H25.056V48.542C25.056 48.938 24.912 49.28 24.624 49.568C24.336 49.856 23.994 50 23.598 50H12.798Z" fill="#50AD9C"/>
<path d="M40.8147 50C40.4187 50 40.0767 49.856 39.7887 49.568C39.5007 49.28 39.3567 48.938 39.3567 48.542V13.658C39.3567 13.262 39.5007 12.92 39.7887 12.632C40.0767 12.344 40.4187 12.2 40.8147 12.2H56.7987C61.9827 12.2 66.0327 13.37 68.9487 15.71C71.8647 18.014 73.3227 21.218 73.3227 25.322C73.3227 27.662 72.8007 29.732 71.7567 31.532C70.7127 33.296 69.2907 34.754 67.4907 35.906L74.1327 48.218C74.2407 48.434 74.2947 48.632 74.2947 48.812C74.2947 49.136 74.1687 49.424 73.9167 49.676C73.7007 49.892 73.4307 50 73.1067 50H62.0367C61.3887 50 60.8667 49.856 60.4707 49.568C60.1107 49.244 59.8587 48.902 59.7147 48.542L55.0707 38.228H52.8567V48.542C52.8567 48.938 52.7127 49.28 52.4247 49.568C52.1367 49.856 51.7947 50 51.3987 50H40.8147ZM56.7987 27.968C57.5907 27.968 58.2027 27.716 58.6347 27.212C59.0667 26.672 59.2827 26.006 59.2827 25.214C59.2827 24.422 59.0667 23.738 58.6347 23.162C58.2387 22.55 57.6267 22.244 56.7987 22.244H52.8567V27.968H56.7987Z" fill="#50AD9C"/>
<path d="M76.5454 50C76.2214 50 75.9334 49.892 75.6814 49.676C75.4654 49.424 75.3574 49.136 75.3574 48.812C75.3574 48.668 75.3754 48.542 75.4114 48.434L87.4534 13.982C87.5974 13.514 87.8674 13.1 88.2634 12.74C88.6594 12.38 89.1994 12.2 89.8834 12.2H101.601C102.285 12.2 102.825 12.38 103.221 12.74C103.617 13.1 103.887 13.514 104.031 13.982L116.073 48.434C116.109 48.542 116.127 48.668 116.127 48.812C116.127 49.136 116.001 49.424 115.749 49.676C115.533 49.892 115.263 50 114.939 50H104.949C103.869 50 103.167 49.55 102.843 48.65L101.547 45.086H89.9374L88.6414 48.65C88.3174 49.55 87.6154 50 86.5354 50H76.5454ZM98.7934 34.556L95.7154 24.512L92.6914 34.556H98.7934Z" fill="#50AD9C"/>
<path d="M126.298 50C125.614 50 125.074 49.82 124.678 49.46C124.282 49.1 124.012 48.686 123.868 48.218L113.716 13.766L113.662 13.388C113.662 13.064 113.77 12.794 113.986 12.578C114.238 12.326 114.526 12.2 114.85 12.2H124.894C125.578 12.2 126.118 12.38 126.514 12.74C126.91 13.1 127.18 13.514 127.324 13.982L132.454 34.07L137.584 13.982C137.728 13.514 137.998 13.1 138.394 12.74C138.79 12.38 139.33 12.2 140.014 12.2H150.058C150.382 12.2 150.652 12.326 150.868 12.578C151.12 12.794 151.246 13.064 151.246 13.388L151.192 13.766L141.04 48.218C140.896 48.686 140.626 49.1 140.23 49.46C139.834 49.82 139.294 50 138.61 50H126.298Z" fill="#50AD9C"/>
<path d="M156.461 50C156.065 50 155.723 49.856 155.435 49.568C155.147 49.28 155.003 48.938 155.003 48.542V13.658C155.003 13.262 155.147 12.92 155.435 12.632C155.723 12.344 156.065 12.2 156.461 12.2H184.163C184.559 12.2 184.901 12.344 185.189 12.632C185.477 12.92 185.621 13.262 185.621 13.658V21.272C185.621 21.668 185.477 22.01 185.189 22.298C184.901 22.586 184.559 22.73 184.163 22.73H167.963V26.132H182.975C183.371 26.132 183.713 26.276 184.001 26.564C184.289 26.852 184.433 27.194 184.433 27.59V34.61C184.433 35.006 184.289 35.348 184.001 35.636C183.713 35.924 183.371 36.068 182.975 36.068H167.963V39.47H184.595C184.991 39.47 185.333 39.614 185.621 39.902C185.909 40.19 186.053 40.532 186.053 40.928V48.542C186.053 48.938 185.909 49.28 185.621 49.568C185.333 49.856 184.991 50 184.595 50H156.461Z" fill="#50AD9C"/>
<path d="M192.479 50C192.083 50 191.741 49.856 191.453 49.568C191.165 49.28 191.021 48.938 191.021 48.542V13.658C191.021 13.262 191.165 12.92 191.453 12.632C191.741 12.344 192.083 12.2 192.479 12.2H203.279C203.675 12.2 204.017 12.344 204.305 12.632C204.593 12.92 204.737 13.262 204.737 13.658V38.93H219.695C220.091 38.93 220.433 39.074 220.721 39.362C221.009 39.65 221.153 39.992 221.153 40.388V48.542C221.153 48.938 221.009 49.28 220.721 49.568C220.433 49.856 220.091 50 219.695 50H192.479Z" fill="#50AD9C"/>
<path d="M241.518 50.54C236.118 50.54 231.816 49.298 228.612 46.814C225.408 44.33 223.698 40.712 223.482 35.96C223.446 34.988 223.428 33.422 223.428 31.262C223.428 29.066 223.446 27.464 223.482 26.456C223.59 23.36 224.4 20.696 225.912 18.464C227.46 16.232 229.566 14.54 232.23 13.388C234.894 12.236 237.99 11.66 241.518 11.66C245.046 11.66 248.142 12.236 250.806 13.388C253.47 14.54 255.558 16.232 257.07 18.464C258.618 20.696 259.446 23.36 259.554 26.456C259.626 28.472 259.662 30.074 259.662 31.262C259.662 32.45 259.626 34.016 259.554 35.96C259.338 40.712 257.628 44.33 254.424 46.814C251.22 49.298 246.918 50.54 241.518 50.54ZM241.518 40.01C242.742 40.01 243.696 39.65 244.38 38.93C245.1 38.21 245.478 37.112 245.514 35.636C245.586 33.548 245.622 32.018 245.622 31.046C245.622 30.002 245.586 28.508 245.514 26.564C245.478 25.088 245.1 23.99 244.38 23.27C243.66 22.55 242.706 22.19 241.518 22.19C240.33 22.19 239.376 22.55 238.656 23.27C237.936 23.99 237.558 25.088 237.522 26.564C237.486 27.536 237.468 29.03 237.468 31.046C237.468 33.062 237.486 34.592 237.522 35.636C237.558 37.112 237.918 38.21 238.602 38.93C239.322 39.65 240.294 40.01 241.518 40.01Z" fill="#50AD9C"/>
<path d="M281.758 50.54C276.178 50.54 271.804 49.298 268.636 46.814C265.468 44.33 263.776 40.622 263.56 35.69C263.524 34.718 263.506 33.116 263.506 30.884C263.506 28.616 263.524 26.978 263.56 25.97C263.74 21.29 265.45 17.744 268.69 15.332C271.93 12.884 276.286 11.66 281.758 11.66C285.43 11.66 288.67 12.2 291.478 13.28C294.286 14.36 296.446 15.818 297.958 17.654C299.47 19.49 300.262 21.506 300.334 23.702C300.334 24.026 300.208 24.314 299.956 24.566C299.74 24.782 299.47 24.89 299.146 24.89H287.212C286.492 24.89 285.97 24.692 285.646 24.296C285.61 24.224 285.448 24.008 285.16 23.648C284.872 23.252 284.422 22.91 283.81 22.622C283.234 22.334 282.55 22.19 281.758 22.19C279.094 22.19 277.708 23.54 277.6 26.24C277.564 27.212 277.546 28.724 277.546 30.776C277.546 32.828 277.564 34.376 277.6 35.42C277.708 38.48 279.166 40.01 281.974 40.01C283.414 40.01 284.53 39.704 285.322 39.092C286.15 38.48 286.564 37.508 286.564 36.176V36.122H284.026C283.63 36.122 283.288 35.978 283 35.69C282.712 35.402 282.568 35.06 282.568 34.664V28.67C282.568 28.274 282.712 27.932 283 27.644C283.288 27.356 283.63 27.212 284.026 27.212H298.876C299.272 27.212 299.614 27.356 299.902 27.644C300.19 27.932 300.334 28.274 300.334 28.67V35.69C300.334 38.858 299.542 41.558 297.958 43.79C296.41 46.022 294.232 47.714 291.424 48.866C288.652 49.982 285.43 50.54 281.758 50.54Z" fill="#50AD9C"/>
<path d="M322.417 50.54C317.017 50.54 312.733 49.316 309.565 46.868C306.433 44.384 304.867 40.676 304.867 35.744V13.658C304.867 13.262 305.011 12.92 305.299 12.632C305.587 12.344 305.929 12.2 306.325 12.2H316.909C317.305 12.2 317.647 12.344 317.935 12.632C318.223 12.92 318.367 13.262 318.367 13.658V35.528C318.367 36.896 318.691 37.94 319.339 38.66C320.023 39.344 321.031 39.686 322.363 39.686C323.695 39.686 324.685 39.344 325.333 38.66C326.017 37.94 326.359 36.896 326.359 35.528V13.658C326.359 13.262 326.503 12.92 326.791 12.632C327.079 12.344 327.421 12.2 327.817 12.2H338.401C338.797 12.2 339.139 12.344 339.427 12.632C339.715 12.92 339.859 13.262 339.859 13.658V35.744C339.859 40.676 338.293 44.384 335.161 46.868C332.029 49.316 327.781 50.54 322.417 50.54Z" fill="#50AD9C"/>
<path d="M346.938 50C346.542 50 346.2 49.856 345.912 49.568C345.624 49.28 345.48 48.938 345.48 48.542V13.658C345.48 13.262 345.624 12.92 345.912 12.632C346.2 12.344 346.542 12.2 346.938 12.2H374.64C375.036 12.2 375.378 12.344 375.666 12.632C375.954 12.92 376.098 13.262 376.098 13.658V21.272C376.098 21.668 375.954 22.01 375.666 22.298C375.378 22.586 375.036 22.73 374.64 22.73H358.44V26.132H373.452C373.848 26.132 374.19 26.276 374.478 26.564C374.766 26.852 374.91 27.194 374.91 27.59V34.61C374.91 35.006 374.766 35.348 374.478 35.636C374.19 35.924 373.848 36.068 373.452 36.068H358.44V39.47H375.072C375.468 39.47 375.81 39.614 376.098 39.902C376.386 40.19 376.53 40.532 376.53 40.928V48.542C376.53 48.938 376.386 49.28 376.098 49.568C375.81 49.856 375.468 50 375.072 50H346.938Z" fill="#50AD9C"/>
</svg>
